<?xml version="1.0" encoding="UTF-8"?> <svg xmlns="http://www.w3.org/2000/svg" width="390" height="93.922" viewBox="0 0 390 93.922"><g id="logotipo" transform="translate(-150 -45)"><path id="Vector" d="M25.419,1.01A50.843,50.843,0,0,0,16.1,0C10.918,0,6.847,1.4,4.01,4.175a13.372,13.372,0,0,0-4,10.133A13.372,13.372,0,0,0,4.039,24.367c2.868,2.808,6.939,4.234,12.109,4.249a50.516,50.516,0,0,0,9.271-1.01l.565-.119V1.129Zm-3.878,3.8V23.728a36.55,36.55,0,0,1-5.334.386c-4.056,0-7.117-1.025-9.093-2.972a9.093,9.093,0,0,1-2.6-6.879A9.063,9.063,0,0,1,7.189,7.414c1.976-1.932,5.037-2.972,9.093-2.972a36.758,36.758,0,0,1,5.26.371Z" transform="translate(278.105 81.55)" fill="#17273d"></path><path id="Vector-2" data-name="Vector" d="M26.684,14.3a14.486,14.486,0,0,0-3.7-10.4A12.154,12.154,0,0,0,13.758,0,13.372,13.372,0,0,0,4.085,3.956a13.729,13.729,0,0,0-4.071,10.4,14.011,14.011,0,0,0,4.056,10.4,13.372,13.372,0,0,0,9.687,4,18.32,18.32,0,0,0,11.084-3.7l.565-.4-2.645-3.625-.565.4a14.412,14.412,0,0,1-8.439,2.838,9.435,9.435,0,0,1-6.6-2.57,9.3,9.3,0,0,1-2.689-6.6H26.684ZM4.992,10.791A8.409,8.409,0,0,1,7.963,6.333a9.048,9.048,0,0,1,5.676-1.9h.089a7.726,7.726,0,0,1,5.943,2.5,8.484,8.484,0,0,1,2.006,3.863Z" transform="translate(345.35 81.501)" fill="#17273d"></path><path id="Vector-3" data-name="Vector" d="M11.8,0C4.012,0,.045,3.982,0,11.886V27.858H4.457V11.6c0-4.948,2.407-7.355,7.429-7.355h.966V0Z" transform="translate(377.159 81.55)" fill="#17273d"></path><path id="Vector-4" data-name="Vector" d="M25.375,1.01A50.843,50.843,0,0,0,16.1,0C10.918,0,6.847,1.4,4.01,4.175a13.372,13.372,0,0,0-4,10.133A13.372,13.372,0,0,0,3.995,24.367C6.862,27.175,10.933,28.6,16.1,28.616a50.516,50.516,0,0,0,9.271-1.01l.55-.119V1.129Zm-3.908,3.8V23.728a36.7,36.7,0,0,1-5.334.386c-4.056,0-7.132-1.025-9.108-2.972A9.138,9.138,0,0,1,4.44,14.263,9.271,9.271,0,0,1,7.026,7.369C9.017,5.438,12.062,4.4,16.133,4.4A36.758,36.758,0,0,1,21.467,4.814Z" transform="translate(425.776 81.55)" fill="#17273d"></path><path id="Vector-5" data-name="Vector" d="M21.187,0,13.03,20.37,4.888,0H0L11.128,27.145H14.9L26.06,0Z" transform="translate(486.602 82.263)" fill="#17273d"></path><path id="Vector-6" data-name="Vector" d="M26.684,14.3A14.427,14.427,0,0,0,22.969,3.9,12.109,12.109,0,0,0,13.743,0,13.446,13.446,0,0,0,4.07,3.957a13.773,13.773,0,0,0-4.056,10.4,14.011,14.011,0,0,0,4.056,10.4,13.372,13.372,0,0,0,9.672,4,18.334,18.334,0,0,0,11.1-3.7l.565-.4-2.66-3.625-.55.4a14.427,14.427,0,0,1-8.454,2.838A9.019,9.019,0,0,1,4.457,15.1H26.743ZM4.992,10.791A8.38,8.38,0,0,1,7.963,6.334a9.212,9.212,0,0,1,5.69-1.9h.074a7.756,7.756,0,0,1,5.943,2.5,8.484,8.484,0,0,1,2.006,3.863Z" transform="translate(513.257 81.501)" fill="#17273d"></path><path id="Vector-7" data-name="Vector" d="M11.886,30.978c-4.962,0-7.429-2.392-7.429-7.355V0H0V23.4c0,7.86,4,11.886,11.8,11.886v0h1.01V30.978Z" transform="translate(310.225 74.166)" fill="#17273d"></path><path id="Vector-8" data-name="Vector" d="M0,0H4.487V4.353H0Z" transform="translate(477.181 74.166)" fill="#17273d"></path><path id="Vector-9" data-name="Vector" d="M7.429,22.064c-1.961-1.129-2.972-3.209-2.972-6.374V0H0V15.452C0,21.4,2.333,25.139,6.864,26.61l.906.282V22.257Z" transform="translate(477.167 82.828)" fill="#17273d"></path><path id="Vector-10" data-name="Vector" d="M11.886,30.978c-4.977,0-7.429-2.407-7.429-7.355V12.287h8.172V7.979H4.457V0L0,1.337V23.386c0,7.86,4.012,11.886,11.8,11.886v0h1V30.978Z" transform="translate(327.089 74.166)" fill="#17273d"></path><path id="Vector-11" data-name="Vector" d="M11.886,30.978c-4.962,0-7.429-2.407-7.429-7.355V12.287h8.157V7.979H4.457V0L0,1.337V23.386c0,7.86,4,11.886,11.8,11.886v0h1.01V30.978Z" transform="translate(459.278 74.166)" fill="#17273d"></path><path id="Vector-12" data-name="Vector" d="M4.457,27.888V4.829a36.505,36.505,0,0,1,5.334-.371c4.056,0,7.117,1.04,9.108,2.972A9.063,9.063,0,0,1,21.469,14a1.8,1.8,0,0,1,0,.282v13.58h4.457V14.308a13.372,13.372,0,0,0-4-10.133C19.092,1.411,15.021,0,9.836,0A49.565,49.565,0,0,0,.565,1.025L0,1.129V27.873Z" transform="translate(395.122 81.52)" fill="#17273d"></path><path id="Vector-13" data-name="Vector" d="M70.7,76.517a45.034,45.034,0,0,1-65.314-46.8,43.37,43.37,0,1,0,86.487,3.908A45.034,45.034,0,0,1,5.427,29.715,43.384,43.384,0,1,0,86.758,0,45,45,0,0,1,84.8,16.655a45.123,45.123,0,0,1-56.563,29.4A44.915,44.915,0,0,1,5.4,29.582h0A43.384,43.384,0,1,0,83.875,66.117,44.93,44.93,0,0,1,70.7,76.517Z" transform="translate(150.992 45)" fill="#faa21b"></path><path id="Vector-14" data-name="Vector" d="M20.994,3.507A48.035,48.035,0,0,0,7.741,21.975,44.707,44.707,0,0,0,23.936,34.01c.639-9.182,8.053-14.085,14.189-15.333,5.72-1.174,15.289,5.393,15.289,5.393.743-3.3-2.972-6.419-5.527-8.915s-2.214-5.066-2.452-6.983-.4-4.948-7.028-7a20.608,20.608,0,0,0-13.714,0A90.275,90.275,0,0,0,0,4.814S15.868,3.135,20.994,3.507Z" transform="translate(150 51.255)" fill="#17273d"></path><path id="Vector-15" data-name="Vector" d="M4.367,5.591a3.655,3.655,0,0,1-1.486.267A2.615,2.615,0,0,1,.014,2.991a2.972,2.972,0,0,1,.8-2.11A3.046,3.046,0,0,1,3.119,0,3.581,3.581,0,0,1,4.411.227L4.129,1.52l-.371-.134a3.15,3.15,0,0,0-.565,0,1.337,1.337,0,0,0-1.04.416,1.6,1.6,0,0,0-.4,1.144A1.486,1.486,0,0,0,2.183,4.1a1.4,1.4,0,0,0,1.04.416,2.244,2.244,0,0,0,.966-.178Z" transform="translate(280.437 121.78)" fill="#faa21b"></path><path id="Vector-16" data-name="Vector" d="M2.844,5.86a2.719,2.719,0,0,1-2.838-2.9A2.972,2.972,0,0,1,.808.808a2.853,2.853,0,0,1,2.169-.8A2.734,2.734,0,0,1,4.983.793a3.046,3.046,0,0,1,.758,2.08,2.823,2.823,0,0,1-.877,2.244A2.972,2.972,0,0,1,2.9,5.86Zm0-1.248a.891.891,0,0,0,.8-.461,2.422,2.422,0,0,0,.267-1.218,2.674,2.674,0,0,0-.238-1.174.877.877,0,0,0-.832-.505A.906.906,0,0,0,2,1.759a2.526,2.526,0,0,0-.253,1.174,2.2,2.2,0,0,0,.282,1.189.877.877,0,0,0,.817.49Z" transform="translate(288.26 121.779)" fill="#faa21b"></path><path id="Vector-17" data-name="Vector" d="M0,1.917V.134H1.486V.907A1.946,1.946,0,0,1,2.065.312,1.991,1.991,0,0,1,3.15,0a1.842,1.842,0,0,1,1.4.594A2.7,2.7,0,0,1,5.1,2.422v3.3H3.447V2.586a1.917,1.917,0,0,0-.178-.906A.773.773,0,0,0,2.6,1.367a.817.817,0,0,0-.55.193,1.159,1.159,0,0,0-.312.461,1.263,1.263,0,0,0,0,.431V5.676H.059Z" transform="translate(298.042 121.829)" fill="#faa21b"></path><path id="Vector-18" data-name="Vector" d="M.327,4.222A3.61,3.61,0,0,0,1,4.5a2.437,2.437,0,0,0,.787.134c.535,0,.8-.163.787-.461a.461.461,0,0,0-.163-.371l-.253-.149-.431-.134a2.57,2.57,0,0,1-1.2-.743,1.486,1.486,0,0,1-.357-.921A1.649,1.649,0,0,1,.787.522,2.5,2.5,0,0,1,2.422,0,3.521,3.521,0,0,1,3.908.329l-.3,1.189a2.57,2.57,0,0,0-.52-.193,2.749,2.749,0,0,0-.7-.119c-.446,0-.669.163-.669.461a.357.357,0,0,0,.208.327,4.933,4.933,0,0,0,.743.327c1,.342,1.486.906,1.486,1.709a1.575,1.575,0,0,1-.594,1.293,2.838,2.838,0,0,1-1.813.535A4.012,4.012,0,0,1,0,5.455Z" transform="translate(307.254 121.782)" fill="#faa21b"></path><path id="Vector-19" data-name="Vector" d="M2.8,8.127A2.763,2.763,0,0,1,.823,7.355,2.719,2.719,0,0,1,.006,5.23,2.972,2.972,0,0,1,.793,3.076a2.972,2.972,0,0,1,2.095-.8,2.734,2.734,0,0,1,2.006.787,2.972,2.972,0,0,1,.758,2.08A2.778,2.778,0,0,1,2.814,8.112Zm0-1.248a.891.891,0,0,0,.787-.461A2.273,2.273,0,0,0,3.869,5.2a2.674,2.674,0,0,0-.253-1.174A.862.862,0,0,0,2.8,3.521a.921.921,0,0,0-.862.505A2.719,2.719,0,0,0,1.685,5.2a2.2,2.2,0,0,0,.282,1.189.891.891,0,0,0,.817.49ZM4.671,0,3.319,1.738H2.175L3.126,0Z" transform="translate(315.049 119.511)" fill="#faa21b"></path><path id="Vector-20" data-name="Vector" d="M0,1.974V.146H1.486v1.04A1.842,1.842,0,0,1,2.125.28,1.486,1.486,0,0,1,2.957.012a1.189,1.189,0,0,1,.342,0V1.647a1.486,1.486,0,0,0-.461,0,1.07,1.07,0,0,0-1.144.891,1.486,1.486,0,0,0,0,.386V5.747H.015Z" transform="translate(324.801 121.772)" fill="#faa21b"></path><path id="Vector-21" data-name="Vector" d="M4.369,5.591a3.714,3.714,0,0,1-1.486.267A2.6,2.6,0,0,1,.015,2.991,2.972,2.972,0,0,1,.8.881,3.046,3.046,0,0,1,3.106,0,3.581,3.581,0,0,1,4.4.227L4.131,1.52,3.76,1.386a3.328,3.328,0,0,0-.579,0A1.367,1.367,0,0,0,2.14,1.8a1.679,1.679,0,0,0-.4,1.144A1.486,1.486,0,0,0,2.185,4.1a1.382,1.382,0,0,0,1.04.416,2.288,2.288,0,0,0,.966-.178Z" transform="translate(331.575 121.78)" fill="#faa21b"></path><path id="Vector-22" data-name="Vector" d="M.922,1.859a.787.787,0,0,1-.654-.282A.862.862,0,0,1,0,.938.891.891,0,0,1,.952,0a.877.877,0,0,1,.936.936.906.906,0,0,1-.253.639.862.862,0,0,1-.7.282ZM.076,8.174V2.587H1.769V8.174Z" transform="translate(339.791 119.331)" fill="#faa21b"></path><path id="Vector-23" data-name="Vector" d="M2.8,5.855A2.764,2.764,0,0,1,.823,5.082,2.719,2.719,0,0,1,.006,2.958,2.972,2.972,0,0,1,.793.8,2.972,2.972,0,0,1,2.9,0,2.734,2.734,0,0,1,4.894.788a2.972,2.972,0,0,1,.758,2.08A2.778,2.778,0,0,1,2.814,5.84Zm0-1.248a.877.877,0,0,0,.787-.461,2.273,2.273,0,0,0,.282-1.218,2.674,2.674,0,0,0-.253-1.174A.862.862,0,0,0,2.8,1.249a.921.921,0,0,0-.862.505,2.719,2.719,0,0,0-.253,1.174,2.2,2.2,0,0,0,.282,1.189.891.891,0,0,0,.817.49Z" transform="translate(345.522 121.784)" fill="#faa21b"></path><path id="Vector-24" data-name="Vector" d="M.312,4.222A3.61,3.61,0,0,0,.981,4.5a2.511,2.511,0,0,0,.787.134c.535,0,.8-.163.787-.461a.461.461,0,0,0-.163-.371L2.14,3.657l-.431-.134a2.57,2.57,0,0,1-1.2-.743,1.486,1.486,0,0,1-.357-.921A1.649,1.649,0,0,1,.773.522,2.5,2.5,0,0,1,2.407,0,3.521,3.521,0,0,1,3.893.329L3.6,1.518a2.57,2.57,0,0,0-.52-.193,2.749,2.749,0,0,0-.7-.119c-.446,0-.669.163-.669.461s0,.238.223.327a4.027,4.027,0,0,0,.728.327c1,.342,1.486.906,1.486,1.709a1.575,1.575,0,0,1-.594,1.293,2.838,2.838,0,0,1-1.813.535A3.952,3.952,0,0,1,0,5.455Z" transform="translate(354.932 121.782)" fill="#faa21b"></path><path id="Vector-25" data-name="Vector" d="M0,3.343A19.523,19.523,0,0,0,.817.1L2.526,0a16.611,16.611,0,0,1-1.4,3.239Z" transform="translate(362.213 125.514)" fill="#faa21b"></path><path id="Vector-26" data-name="Vector" d="M.327,4.222A3.061,3.061,0,0,0,.981,4.5a2.511,2.511,0,0,0,.787.134c.535,0,.8-.163.787-.461a.461.461,0,0,0-.163-.371L2.14,3.657l-.431-.134a2.57,2.57,0,0,1-1.2-.743,1.486,1.486,0,0,1-.357-.921A1.649,1.649,0,0,1,.773.522,2.5,2.5,0,0,1,2.407,0,3.521,3.521,0,0,1,3.893.329L3.6,1.518a2.57,2.57,0,0,0-.52-.193,2.749,2.749,0,0,0-.7-.119c-.446,0-.669.163-.669.461a.371.371,0,0,0,.223.327,4.026,4.026,0,0,0,.728.327c1,.342,1.486.906,1.486,1.709a1.6,1.6,0,0,1-.579,1.293,2.972,2.972,0,0,1-1.827.535A3.952,3.952,0,0,1,0,5.455Z" transform="translate(372.821 121.782)" fill="#faa21b"></path><path id="Vector-27" data-name="Vector" d="M1.636,3.482a1.055,1.055,0,0,0,.49.8,1.946,1.946,0,0,0,1.025.267,4.249,4.249,0,0,0,1.486-.238L4.86,5.488A5.022,5.022,0,0,1,2.9,5.83,2.57,2.57,0,0,1,.016,2.992,3.417,3.417,0,0,1,.685.942,2.437,2.437,0,0,1,2.75.005,2.11,2.11,0,0,1,4.607.867a3.4,3.4,0,0,1,.55,1.917,3.967,3.967,0,0,1,0,.7ZM3.612,2.294a3.714,3.714,0,0,0,0-.371,1.144,1.144,0,0,0-.149-.371.847.847,0,0,0-.267-.3,1,1,0,0,0-.49-.1.847.847,0,0,0-.773.386,1.59,1.59,0,0,0-.282.758Z" transform="translate(380.605 121.749)" fill="#faa21b"></path><path id="Vector-28" data-name="Vector" d="M5.426,4.949a3.284,3.284,0,0,1-.832,2.5,1.723,1.723,0,0,1-.461.327A2.348,2.348,0,0,1,3.6,7.98a4.012,4.012,0,0,1-.579.119A4.457,4.457,0,0,1,.464,7.713L.791,6.39a2.7,2.7,0,0,0,.683.282,2.808,2.808,0,0,0,.891.134,1.486,1.486,0,0,0,1.01-.342,1.575,1.575,0,0,0,.4-1.129V4.949a1.753,1.753,0,0,1-1.486.728A2.08,2.08,0,0,1,.657,4.9,2.972,2.972,0,0,1,0,2.958,3.135,3.135,0,0,1,.746.789,2.348,2.348,0,0,1,2.469,0a1.723,1.723,0,0,1,.921.223,1.709,1.709,0,0,1,.565.565h0V.135H5.441V1.8ZM3.747,2.438a2.214,2.214,0,0,0,0-.312.906.906,0,0,0-.906-.773.951.951,0,0,0-.787.4,1.828,1.828,0,0,0-.327,1.189,1.872,1.872,0,0,0,.282,1.04.936.936,0,0,0,.817.446.877.877,0,0,0,.579-.193,1.07,1.07,0,0,0,.312-.49,1.738,1.738,0,0,0,0-.475Z" transform="translate(389.503 121.768)" fill="#faa21b"></path><path id="Vector-29" data-name="Vector" d="M5.081,3.789v1.8H3.6V4.8a1.931,1.931,0,0,1-.193.282,1.486,1.486,0,0,1-.357.3A2.05,2.05,0,0,1,1.9,5.72C.683,5.72.045,4.918,0,3.269V0H1.694V2.972c0,.862.267,1.293.847,1.307a.877.877,0,0,0,.832-.609A.981.981,0,0,0,3.447,3.3V0H5.126Z" transform="translate(399.342 121.918)" fill="#faa21b"></path><path id="Vector-30" data-name="Vector" d="M0,1.973V.146H1.486v1.04A1.842,1.842,0,0,1,2.125.28,1.486,1.486,0,0,1,2.942.012a1.307,1.307,0,0,1,.357,0V1.647a1.486,1.486,0,0,0-.461,0,1.085,1.085,0,0,0-1.159.891,2.734,2.734,0,0,0,0,.386V5.747H0Z" transform="translate(408.836 121.772)" fill="#faa21b"></path><path id="Vector-31" data-name="Vector" d="M2.812,5.855A2.749,2.749,0,0,1,0,2.958,2.971,2.971,0,0,1,.806.8,2.971,2.971,0,0,1,2.9,0,2.734,2.734,0,0,1,4.907.789a3.046,3.046,0,0,1,.758,2.08A2.778,2.778,0,0,1,2.827,5.84Zm0-1.248a.891.891,0,0,0,.8-.461A2.422,2.422,0,0,0,3.9,2.928a2.674,2.674,0,0,0-.253-1.174.877.877,0,0,0-.832-.505.906.906,0,0,0-.847.505,2.719,2.719,0,0,0-.253,1.174,2.2,2.2,0,0,0,.282,1.189.877.877,0,0,0,.817.49Z" transform="translate(415.592 121.783)" fill="#faa21b"></path><path id="Vector-32" data-name="Vector" d="M.327,4.221A3.61,3.61,0,0,0,1,4.5a2.437,2.437,0,0,0,.787.134c.535,0,.8-.163.787-.461a.46.46,0,0,0-.163-.371l-.253-.149-.446-.134A2.6,2.6,0,0,1,.52,2.78a1.486,1.486,0,0,1-.357-.921A1.649,1.649,0,0,1,.787.522,2.481,2.481,0,0,1,2.407,0,3.417,3.417,0,0,1,3.893.329L3.61,1.517a2.57,2.57,0,0,0-.52-.193,2.749,2.749,0,0,0-.7-.119c-.446,0-.669.163-.669.461a.357.357,0,0,0,.208.327,4.933,4.933,0,0,0,.743.327c1,.342,1.486.906,1.486,1.709a1.575,1.575,0,0,1-.594,1.293,2.838,2.838,0,0,1-1.813.535A4.012,4.012,0,0,1,0,5.455Z" transform="translate(425.001 121.783)" fill="#faa21b"></path><path id="Vector-33" data-name="Vector" d="M1.636,3.483a1.055,1.055,0,0,0,.49.8,1.946,1.946,0,0,0,1.025.267,4.249,4.249,0,0,0,1.486-.238L4.86,5.489A5.022,5.022,0,0,1,2.9,5.831,2.57,2.57,0,0,1,.016,2.993,3.417,3.417,0,0,1,.685.943,2.422,2.422,0,0,1,2.735.007,2.11,2.11,0,0,1,4.607.868a3.4,3.4,0,0,1,.55,1.917,3.67,3.67,0,0,1,0,.7ZM3.612,2.295a3.714,3.714,0,0,0,0-.371,1.144,1.144,0,0,0-.149-.371.891.891,0,0,0-.282-.3.906.906,0,0,0-.475-.1.832.832,0,0,0-.773.386,1.59,1.59,0,0,0-.282.758Z" transform="translate(437.941 121.748)" fill="#faa21b"></path><path id="Vector-34" data-name="Vector" d="M.015,2.007V.135H1.5l.074.773A2.11,2.11,0,0,1,3.388,0,2.14,2.14,0,0,1,4.962.744a3.224,3.224,0,0,1,.669,2.11A3.12,3.12,0,0,1,4.873,5.1a2.348,2.348,0,0,1-1.694.758A1.634,1.634,0,0,1,1.694,5.2h0V7.95H0ZM1.709,3.315a1.486,1.486,0,0,0,0,.371,1.01,1.01,0,0,0,.371.579.832.832,0,0,0,.609.238,1,1,0,0,0,.862-.446,1.961,1.961,0,0,0,.3-1.129A2.021,2.021,0,0,0,3.566,1.8a.966.966,0,0,0-.847-.431,1.025,1.025,0,0,0-.639.238,1.2,1.2,0,0,0-.371.639,1.114,1.114,0,0,0,0,.312Z" transform="translate(452.265 121.739)" fill="#faa21b"></path><path id="Vector-35" data-name="Vector" d="M.015,1.974V.146H1.5v1.04A1.842,1.842,0,0,1,2.14.28,1.486,1.486,0,0,1,2.972.012a1.189,1.189,0,0,1,.342,0V1.647a1.486,1.486,0,0,0-.461,0,1.07,1.07,0,0,0-1.144.891,1.486,1.486,0,0,0,0,.386V5.747H0Z" transform="translate(461.952 121.772)" fill="#faa21b"></path><path id="Vector-36" data-name="Vector" d="M1.636,3.483a1.055,1.055,0,0,0,.49.8,1.946,1.946,0,0,0,1.025.267,4.249,4.249,0,0,0,1.486-.238L4.86,5.489A5.022,5.022,0,0,1,2.9,5.831,2.57,2.57,0,0,1,.016,2.993,3.417,3.417,0,0,1,.685.943,2.422,2.422,0,0,1,2.735.007,2.11,2.11,0,0,1,4.607.868a3.4,3.4,0,0,1,.55,1.917,3.67,3.67,0,0,1,0,.7ZM3.612,2.295a3.714,3.714,0,0,0,0-.371,1.144,1.144,0,0,0-.149-.371.891.891,0,0,0-.282-.3.906.906,0,0,0-.475-.1.832.832,0,0,0-.773.386,1.59,1.59,0,0,0-.282.758Z" transform="translate(468.711 121.748)" fill="#faa21b"></path><path id="Vector-37" data-name="Vector" d="M1.827,0l.728,2.6c.119.461.223.906.312,1.352.089-.446.178-.891.3-1.352l.7-2.6H5.69L3.685,5.586H1.976L0,0Z" transform="translate(477.211 121.918)" fill="#faa21b"></path><path id="Vector-38" data-name="Vector" d="M.937,1.858a.817.817,0,0,1-.669-.282A.862.862,0,0,1,0,.937.921.921,0,0,1,.268.253.951.951,0,0,1,.952,0a.951.951,0,0,1,.7,1.575.891.891,0,0,1-.713.282ZM.09,8.172V2.586H1.769V8.172Z" transform="translate(486.586 119.332)" fill="#faa21b"></path><path id="Vector-39" data-name="Vector" d="M5.5,0V8.112H4.014V7.3a1.664,1.664,0,0,1-.7.7,2.08,2.08,0,0,1-2.63-.55A3.105,3.105,0,0,1,0,5.378a3.284,3.284,0,0,1,.728-2.2,2.273,2.273,0,0,1,1.694-.787,1.649,1.649,0,0,1,1.486.639h0V.059ZM3.9,4.9a2.407,2.407,0,0,0,0-.327,1.025,1.025,0,0,0-.327-.594,1.055,1.055,0,0,0-1.486.208,2.021,2.021,0,0,0-.3,1.129A1.768,1.768,0,0,0,2.1,6.433a.981.981,0,0,0,.832.416.906.906,0,0,0,.654-.238.966.966,0,0,0,.342-.594,3.135,3.135,0,0,0,0-.386Z" transform="translate(492.378 119.392)" fill="#faa21b"></path><path id="Vector-40" data-name="Vector" d="M1.634,5.75a1.025,1.025,0,0,0,.505.8,1.887,1.887,0,0,0,1.025.267A4.294,4.294,0,0,0,4.65,6.582l.223,1.174A5.022,5.022,0,0,1,2.912,8.1,2.585,2.585,0,0,1,.014,5.26a3.417,3.417,0,0,1,.669-2.05,2.437,2.437,0,0,1,2.065-.936,2.11,2.11,0,0,1,1.872.862,3.521,3.521,0,0,1,.55,1.917,5.542,5.542,0,0,1,0,.7ZM3.328,0l1.1,1.738H3.357L2.808.758l-.55.981H1.188L2.288,0Zm.3,4.561a1.8,1.8,0,0,0,0-.371,1.575,1.575,0,0,0-.134-.371,1.07,1.07,0,0,0-.282-.3.966.966,0,0,0-.49-.1.847.847,0,0,0-.773.386,1.753,1.753,0,0,0-.282.758Z" transform="translate(501.934 119.482)" fill="#faa21b"></path><path id="Vector-41" data-name="Vector" d="M0,1.917V.134H1.486V.907A1.946,1.946,0,0,1,2.065.312,1.991,1.991,0,0,1,3.15,0a1.842,1.842,0,0,1,1.4.594A2.7,2.7,0,0,1,5.1,2.422v3.3H3.4V2.586a1.917,1.917,0,0,0-.178-.906.773.773,0,0,0-.669-.312.817.817,0,0,0-.55.193,1.159,1.159,0,0,0-.312.461,1.263,1.263,0,0,0,0,.431V5.676H0Z" transform="translate(511.131 121.829)" fill="#faa21b"></path><path id="Vector-42" data-name="Vector" d="M4.369,5.593a3.714,3.714,0,0,1-1.486.267A2.6,2.6,0,0,1,.015,2.992a2.972,2.972,0,0,1,.8-2.11,2.972,2.972,0,0,1,2.3-.877A3.492,3.492,0,0,1,4.4.229L4.131,1.522,3.76,1.388a3.15,3.15,0,0,0-.565,0A1.4,1.4,0,0,0,2.14,1.8a1.753,1.753,0,0,0-.4,1.144,1.486,1.486,0,0,0,.446,1.159,1.4,1.4,0,0,0,1.04.416,2.243,2.243,0,0,0,.966-.178Z" transform="translate(520.357 121.779)" fill="#faa21b"></path><path id="Vector-43" data-name="Vector" d="M.937,1.859a.817.817,0,0,1-.669-.282A.862.862,0,0,1,0,.938.921.921,0,0,1,.268.255.951.951,0,0,1,.952,0a.877.877,0,0,1,.936.936.891.891,0,0,1-.951.921ZM.09,8.174V2.587H1.769V8.174Z" transform="translate(528.574 119.331)" fill="#faa21b"></path><path id="Vector-44" data-name="Vector" d="M4.874,4.217a8.172,8.172,0,0,0,.089,1.352H3.478L3.374,5a2.05,2.05,0,0,1-1.59.7A1.724,1.724,0,0,1,.491,5.168,1.649,1.649,0,0,1,0,3.979,1.8,1.8,0,0,1,.907,2.36a4.7,4.7,0,0,1,2.377-.52.758.758,0,0,0-.193-.49.639.639,0,0,0-.3-.178,1.9,1.9,0,0,0-.535,0,2.972,2.972,0,0,0-1.486.416L.447.473A3.551,3.551,0,0,1,1.308.131,4.933,4.933,0,0,1,1.918.012a4.8,4.8,0,0,1,.683,0A2.348,2.348,0,0,1,4.518.725a2.615,2.615,0,0,1,.505,1.694ZM3.255,2.924A3.343,3.343,0,0,0,2.066,3.1a.758.758,0,0,0-.49.713.624.624,0,0,0,.208.49.684.684,0,0,0,.49.178.981.981,0,0,0,.594-.193.921.921,0,0,0,.342-.461.951.951,0,0,0,0-.3Z" transform="translate(534.353 121.936)" fill="#faa21b"></path></g></svg> 