<svg width="278" height="76" viewBox="0 0 278 76" fill="none" xmlns="http://www.w3.org/2000/svg">
<g clip-path="url(#clip0_910_3038)">
<path fill-rule="evenodd" clip-rule="evenodd" d="M22.1983 24.8394C7.8958 24.8394 14.4597 44.8076 19.5382 44.8076H43.6521C45.4831 44.8076 45.7249 44.1512 46.0358 43.1148L51.667 24.8394H22.1983Z" fill="url(#paint0_linear_910_3038)"/>
<path fill-rule="evenodd" clip-rule="evenodd" d="M11.3157 0C8.44832 0 7.34281 0 6.34094 3.24743L1.29706 19.9683C-0.257564 24.8049 -0.533941 25.7031 1.12432 28.4323L24.7546 67.9197H38.4698L41.7172 57.3483L21.4726 23.5612C20.4362 21.9029 21.6108 19.9683 23.58 19.9683H51.2868C53.1178 19.9683 53.3596 19.3119 53.6705 18.2754L59.2672 0H11.3157Z" fill="url(#paint1_linear_910_3038)"/>
<path fill-rule="evenodd" clip-rule="evenodd" d="M29.8334 0C15.5654 0 14.7363 12.4024 19.262 19.9683L22.1639 24.8049C19.8147 20.9356 22.4403 19.9683 23.5803 19.9683H51.2872C53.1182 19.9683 53.36 19.3119 53.6709 18.2754L59.2676 0H29.8334Z" fill="url(#paint2_linear_910_3038)"/>
<path fill-rule="evenodd" clip-rule="evenodd" d="M33.0453 75.1745C44.895 75.1745 46.2078 64.8794 42.4421 58.5918L37.6746 50.646C40.5075 55.379 39.4365 58.5918 35.2563 58.5918H11.7297C10.2097 58.5918 10.0369 59.1446 9.76054 60.0083L5.09668 75.1745H33.0453Z" fill="url(#paint3_linear_910_3038)"/>
<path d="M118.407 24.9995H97.845C97.6197 24.9995 97.3943 25.1122 97.2817 25.2812C97.0563 25.4502 97 25.6755 97 26.0135V56.0393C97 56.321 97.0563 56.49 97.2253 56.659C97.338 56.828 97.5633 56.8844 97.7887 56.9407H104.323C104.999 56.9407 105.337 56.659 105.337 56.0393V46.1246H115.027C115.308 46.1246 115.534 46.012 115.703 45.7866C115.872 45.5613 115.928 45.336 115.928 45.1106V39.9843C115.928 39.6463 115.815 39.4209 115.646 39.2519C115.477 39.1393 115.252 39.0266 114.97 39.0266H105.337V32.3792H118.407C118.745 32.3792 118.97 32.2666 119.139 32.0412C119.308 31.8159 119.421 31.5905 119.421 31.3652V26.0135C119.421 25.6755 119.364 25.4502 119.195 25.2812C118.97 25.1122 118.745 24.9995 118.407 24.9995ZM150.179 24.9995H143.926C143.644 24.9995 143.363 25.1122 143.194 25.2812C143.025 25.4502 142.912 25.6755 142.912 25.9572V44.1529C142.912 45.1106 142.799 45.9556 142.518 46.688C142.236 47.4203 141.842 48.04 141.391 48.547C140.884 49.054 140.377 49.392 139.701 49.6736C139.081 49.899 138.405 50.0116 137.673 50.0116C136.997 50.0116 136.321 49.899 135.701 49.6736C135.082 49.4483 134.518 49.1103 134.011 48.6596C133.504 48.209 133.166 47.5893 132.828 46.857C132.547 46.1246 132.378 45.2233 132.378 44.1529V25.9572C132.378 25.6755 132.265 25.4502 132.04 25.2812C131.814 25.1122 131.589 24.9995 131.364 24.9995H124.941C124.66 24.9995 124.491 25.1122 124.322 25.2812C124.153 25.5065 124.04 25.6755 124.04 25.9572V44.0966C124.04 46.5753 124.434 48.6596 125.167 50.3496C125.899 52.0397 126.913 53.448 128.153 54.462C129.392 55.5323 130.857 56.2647 132.49 56.7154C134.124 57.166 135.87 57.3914 137.673 57.3914C139.476 57.3914 141.222 57.166 142.856 56.7154C144.489 56.2647 145.954 55.5323 147.193 54.462C148.433 53.448 149.447 52.0397 150.179 50.3496C150.911 48.6596 151.306 46.519 151.306 44.0403V25.9572C151.306 25.7318 151.193 25.5065 151.024 25.2812C150.799 25.1122 150.517 24.9995 150.179 24.9995ZM180.712 49.5046H166.29V44.0403H177.05C177.332 44.0403 177.557 43.9276 177.726 43.7586C177.895 43.5896 177.951 43.3643 177.951 43.1953V38.5196C177.951 38.2379 177.839 38.0126 177.67 37.8999C177.501 37.7872 177.275 37.7309 176.994 37.7309H166.29V32.3792H180.205C180.543 32.3792 180.768 32.2666 180.937 32.0412C181.106 31.8159 181.219 31.5905 181.219 31.3652V26.0135C181.219 25.6755 181.106 25.4502 180.937 25.2812C180.768 25.1122 180.543 24.9995 180.205 24.9995H158.854C158.573 24.9995 158.347 25.1122 158.178 25.2812C158.009 25.4502 157.953 25.6755 157.953 26.0135V55.983C157.953 56.321 158.066 56.5463 158.235 56.659C158.404 56.828 158.629 56.8843 158.911 56.8843H180.655C180.937 56.8843 181.219 56.7717 181.388 56.6027C181.613 56.4337 181.669 56.2083 181.669 55.8703V50.5187C181.669 49.8426 181.331 49.5046 180.712 49.5046ZM212.991 54.8L207.47 44.3783C208.259 43.9276 208.935 43.4206 209.611 42.8009C210.287 42.1813 210.85 41.5053 211.301 40.7166C211.752 39.9279 212.146 39.1393 212.428 38.2379C212.709 37.3366 212.822 36.4352 212.822 35.4776C212.822 34.0692 212.54 32.7172 211.977 31.4215C211.414 30.1259 210.681 29.0555 209.724 28.0979C208.766 27.1402 207.639 26.4079 206.344 25.8445C205.048 25.2812 203.64 24.9995 202.175 24.9995H188.261C187.923 24.9995 187.697 25.1122 187.528 25.2812C187.359 25.4502 187.303 25.6755 187.303 26.0135V55.983C187.303 56.321 187.415 56.5463 187.584 56.659C187.753 56.828 187.979 56.8843 188.261 56.8843H194.626C195.302 56.8843 195.64 56.6027 195.64 55.983V46.2936H199.133L204.372 56.0957C204.428 56.321 204.541 56.5463 204.766 56.659C204.935 56.828 205.161 56.8843 205.442 56.8843H212.822C213.104 56.8843 213.273 56.828 213.442 56.7154C213.611 56.6027 213.667 56.4337 213.667 56.2083C213.667 55.983 213.611 55.7577 213.442 55.476C213.216 55.2507 213.104 54.969 212.991 54.8ZM203.978 36.8859C203.809 37.3366 203.64 37.7309 203.358 38.0689C203.076 38.4069 202.738 38.6886 202.344 38.9703C201.95 39.1956 201.499 39.3646 200.992 39.4209C200.767 39.4773 200.541 39.4773 200.316 39.4773C200.091 39.4773 199.865 39.4773 199.64 39.4773H195.697V31.5905H198.682C199.077 31.5905 199.471 31.5905 199.809 31.6469C200.147 31.6469 200.541 31.7032 200.936 31.7032C201.443 31.7595 201.893 31.9285 202.288 32.1539C202.682 32.3792 203.02 32.7172 203.302 33.0552C203.583 33.3932 203.809 33.7876 203.978 34.2382C204.147 34.6889 204.203 35.0832 204.203 35.5339C204.203 35.9846 204.09 36.4352 203.978 36.8859ZM277.887 55.983L266.057 25.6755C266.001 25.5065 265.888 25.3375 265.719 25.2248C265.494 25.0558 265.325 24.9995 265.043 24.9995H259.523C259.297 24.9995 259.016 25.1122 258.79 25.2812C258.565 25.4502 258.396 25.6755 258.34 25.8445L246.678 56.0957C246.622 56.2083 246.622 56.321 246.622 56.3773C246.622 56.6027 246.678 56.7154 246.847 56.828C247.016 56.9407 247.185 56.9407 247.411 56.9407H253.777C254.284 56.9407 254.678 56.659 254.847 56.152C255.129 55.4197 255.41 54.6873 255.692 53.955C255.974 53.2227 256.255 52.4903 256.537 51.758H267.973C268.254 52.4903 268.536 53.2227 268.818 53.955C269.099 54.6873 269.381 55.4197 269.663 56.152C269.775 56.4337 269.888 56.659 270.057 56.7717C270.226 56.8843 270.508 56.9407 270.846 56.9407H277.042C277.662 56.9407 278 56.7153 278 56.321C277.944 56.2083 277.944 56.0957 277.887 55.983ZM259.016 44.8853C259.297 44.1529 259.579 43.3643 259.861 42.5193C260.142 41.6743 260.424 40.8293 260.706 39.9843C260.987 39.1393 261.269 38.2943 261.551 37.4492C261.832 36.6042 262.114 35.8156 262.396 35.0832L265.663 44.8853H259.016ZM242.51 49.561H227.75L243.298 31.0272C243.355 30.8582 243.411 30.7455 243.411 30.6329C243.411 30.5202 243.411 30.4075 243.411 30.2949V25.9572C243.411 25.6192 243.298 25.3938 243.129 25.2248C242.96 25.0558 242.735 24.9995 242.453 24.9995H217.498C217.16 24.9995 216.934 25.1122 216.765 25.2812C216.596 25.4502 216.484 25.6755 216.484 25.9572V31.3652C216.484 31.7595 216.596 31.9849 216.765 32.1539C216.934 32.3229 217.216 32.3792 217.498 32.3792H232.201L216.653 50.6876C216.54 50.8567 216.484 51.0257 216.484 51.251V55.8703C216.484 56.2083 216.596 56.4337 216.765 56.659C216.934 56.828 217.216 56.9407 217.498 56.9407H242.453C242.735 56.9407 242.96 56.828 243.129 56.6027C243.411 56.3773 243.467 56.0957 243.467 55.8703V50.5187C243.467 50.1806 243.355 49.9553 243.186 49.7863C243.017 49.6173 242.791 49.561 242.51 49.561Z" fill="white"/>
</g>
<defs>
<linearGradient id="paint0_linear_910_3038" x1="21.5357" y1="21.3079" x2="44.9891" y2="44.7613" gradientUnits="userSpaceOnUse">
<stop stop-color="#F9A533"/>
<stop offset="1" stop-color="#DA2031"/>
</linearGradient>
<linearGradient id="paint1_linear_910_3038" x1="-0.0157343" y1="33.9574" x2="59.2779" y2="33.9574" gradientUnits="userSpaceOnUse">
<stop stop-color="#17479D"/>
<stop offset="1" stop-color="#001940"/>
</linearGradient>
<linearGradient id="paint2_linear_910_3038" x1="22.6427" y1="25.2536" x2="53.5873" y2="-5.69095" gradientUnits="userSpaceOnUse">
<stop stop-color="#F9A533"/>
<stop offset="0.9953" stop-color="#F46E00"/>
</linearGradient>
<linearGradient id="paint3_linear_910_3038" x1="36.1608" y1="77.6954" x2="13.8737" y2="55.408" gradientUnits="userSpaceOnUse">
<stop stop-color="#F9A533"/>
<stop offset="1" stop-color="#DA2031"/>
</linearGradient>
<clipPath id="clip0_910_3038">
<rect width="278" height="76" fill="white"/>
</clipPath>
</defs>
</svg>
